<?xml version="1.0" encoding="UTF-8" standalone="no"?>
<svg
   id="Ebene_1"
   data-name="Ebene 1"
   viewBox="0 0 664.11 138.24"
   version="1.1"
   sodipodi:docname="home_image_lower.svg"
   inkscape:version="1.1 (c68e22c387, 2021-05-23)"
   xmlns:inkscape="http://www.inkscape.org/namespaces/inkscape"
   xmlns:sodipodi="http://sodipodi.sourceforge.net/DTD/sodipodi-0.dtd"
   xmlns="http://www.w3.org/2000/svg"
   xmlns:svg="http://www.w3.org/2000/svg">
  <sodipodi:namedview
     id="namedview104"
     pagecolor="#ffffff"
     bordercolor="#666666"
     borderopacity="1.0"
     inkscape:pageshadow="2"
     inkscape:pageopacity="0.0"
     inkscape:pagecheckerboard="0"
     showgrid="false"
     inkscape:zoom="1.1158262"
     inkscape:cx="270.65146"
     inkscape:cy="126.81186"
     inkscape:window-width="1920"
     inkscape:window-height="1001"
     inkscape:window-x="-9"
     inkscape:window-y="-9"
     inkscape:window-maximized="1"
     inkscape:current-layer="Ebene_1" />
  <defs
     id="defs7">
    <style
       id="style2">
            .cls-1 {
                fill: none;
            }

            .cls-2 {
                fill: #802780;
            }

            .cls-3 {
                fill: #31307b;
            }

            .cls-4 {
                fill: #289548;
            }

            .cls-5 {
                fill: #ffed00;
            }

            .cls-6 {
                fill: #de9527;
            }

            .cls-7 {
                fill: #c6312f;
            }

            .cls-8 {
                fill: #e1a8c4;
            }

            .cls-9 {
                fill: #80c0df;
            }

            .cls-10 {
                fill: #613a19;
            }

            .cls-11 {
                fill: #fff;
            }

            .cls-12 {
                fill: #2f3a75;
            }

            .cls-13 {
                fill: #222221;
            }

            .cls-14 {
                clip-path: url(#clip-path);
            }

            .cls-15 {
                fill: #6c391a;
            }

            .cls-16 {
                fill: #dd9ab8;
            }
        </style>
    <clipPath
       id="clip-path"
       transform="translate(-89.24 -46.09)">
      <rect
         class="cls-1"
         x="89.239998"
         y="46.09"
         width="664.10999"
         height="514.57001"
         id="rect4" />
    </clipPath>
  </defs>
  <path
     class="cls-2"
     d="m 385.76,0.33 v 138 h 0.62 A 136.84,136.84 0 0 0 523.16,1.47 c 0,-0.38 0,-0.76 0,-1.14 z"
     id="path23" />
  <path
     class="cls-3"
     d="M 385.76,0.32 V 115.1 h 1.73 A 113.26,113.26 0 0 0 500.7,1.83 c 0,-0.5 0,-1 0,-1.51 z"
     id="path25" />
  <path
     class="cls-4"
     d="m 385.76,0.32 v 91.53 c 50.51,0 92.13,-41 92.33,-91.53 z"
     id="path27" />
  <path
     class="cls-5"
     d="m 385.76,0.32 v 67.67 c 1,0 1.92,0.07 2.89,0.07 A 67.44,67.44 0 0 0 456.07,0.6 c 0,-0.09 0,-0.18 0,-0.28 z"
     id="path29" />
  <path
     class="cls-6"
     d="m 385.76,0.32 v -48.63 c -0.66,0 -1.33,0 -2,0.07 V 48.1 c 1,0.06 1.92,0.1 2.89,0.1 A 48.25,48.25 0 0 0 434.88,0.32 Z"
     id="path31" />
  <path
     class="cls-7"
     d="m 385.76,0.33 v -30.88 h -0.72 c -0.42,0 -0.85,0 -1.27,0 v 56.73 c 0.42,0 0.85,0 1.27,0 a 28.45,28.45 0 0 0 28.37,-25.9 z"
     id="path33" />
  <polygon
     class="cls-11"
     points="137.86,376.33 137.86,445.61 211.09,445.61 211.18,376.32 "
     id="polygon69"
     transform="translate(0,-376)" />
  <rect
     class="cls-5"
     x="207.13"
     y="0.32000732"
     width="68.120003"
     height="69.290001"
     id="rect71" />
  <polygon
     class="cls-13"
     points="275.25,445.61 207.11,445.63 275.25,514.57 "
     id="polygon77"
     transform="translate(0,-376)" />
  <polygon
     class="cls-9"
     points="370.14,491.33 370.14,514.57 385.74,514.57 385.74,376.33 275.25,376.33 275.25,514.55 292.48,514.55 292.48,491.33 308.86,491.33 308.86,514.55 323.23,514.55 323.23,491.33 337.82,491.33 337.82,514.55 353.98,514.55 353.98,491.33 "
     id="polygon79"
     transform="translate(0,-376)" />
</svg>
