<?xml version="1.0" encoding="UTF-8"?>
<svg data-name="Ebene 1" version="1.1" viewBox="0 0 664.11 376.37" xmlns="http://www.w3.org/2000/svg">
 <defs>
  <style>.cls-1 {
                fill: none;
            }

            .cls-2 {
                fill: #802780;
            }

            .cls-3 {
                fill: #31307b;
            }

            .cls-4 {
                fill: #289548;
            }

            .cls-5 {
                fill: #ffed00;
            }

            .cls-6 {
                fill: #de9527;
            }

            .cls-7 {
                fill: #c6312f;
            }

            .cls-8 {
                fill: #e1a8c4;
            }

            .cls-9 {
                fill: #80c0df;
            }

            .cls-10 {
                fill: #613a19;
            }

            .cls-11 {
                fill: #fff;
            }

            .cls-12 {
                fill: #2f3a75;
            }

            .cls-13 {
                fill: #222221;
            }

            .cls-14 {
                clip-path: url(#clip-path);
            }

            .cls-15 {
                fill: #6c391a;
            }

            .cls-16 {
                fill: #dd9ab8;
            }</style>
  <clipPath id="clip-path" transform="translate(-89.24 -46.09)">
   <rect class="cls-1" x="89.24" y="46.09" width="664.11" height="514.57"/>
  </clipPath>
 </defs>
 <path class="cls-2" d="m385.76 0.21h-2.35a108 108 0 1 0 0 216h2.35z"/>
 <path class="cls-3" d="m385.76 16.37a98.45 98.45 0 0 0 0 196.82z"/>
 <path class="cls-4" d="m385.76 32.5a81.28 81.28 0 0 0 0 162.47z"/>
 <path class="cls-5" d="m385.76 48.8a66.26 66.26 0 0 0 0 132.31z"/>
 <path class="cls-6" d="m385.76 62.91a50.07 50.07 0 0 0 0 100z"/>
 <path class="cls-7" d="m385.76 77.41a33.5 33.5 0 0 0 0 66.86z"/>
 <path class="cls-2" d="m385.76 240.6a137.45 137.45 0 0 0-20.42 1.6h20.42z"/>
 <rect class="cls-8" x="178.76" y="105.47" width="300.21" height="133.6"/>
 <rect class="cls-6" x="275.25" y="105.45" width="110.48" height="133.56"/>
 <polygon class="cls-4" points="323.23 147.68 323.23 171.18 337.68 171.18 337.68 147.68 354.07 147.68 354.07 171.18 369.62 171.18 369.62 147.68 385.74 147.68 385.74 168.38 385.74 376.36 275.25 376.33 275.25 147.68 292.4 147.68 292.4 171.18 307.12 171.18 307.12 147.68"/>
 <polygon class="cls-5" points="426.29 21.68 426.29 0 413.23 0 413.23 21.67 400.17 21.67 400.17 0 385.74 0 385.74 239.02 478.98 239.02 478.98 0 464.78 0 464.78 21.67 452.75 21.67 452.75 0 438.66 0 438.66 21.68"/>
 <polygon class="cls-9" points="385.73 148.71 385.73 239.02 478.97 239.02"/>
 <rect class="cls-10" x="524.06" y="307.67" width="70.03" height="68.66"/>
 <polygon class="cls-11" points="524.06 238.98 594.09 307.67 524.06 307.67"/>
 <polygon class="cls-8" points="594.09 376.33 664.11 376.33 594.09 307.67"/>
 <polygon points="594.09 307.67 524.06 238.98 594.09 238.98"/>
 <polygon class="cls-2" points="137.86 239.02 275.25 239.02 275.25 239.01 137.86 239.01 137.86 268.56 167.42 268.56"/>
 <polygon class="cls-12" points="137.86 290.04 188.92 290.04 160.84 261.98 137.86 261.98"/>
 <polygon class="cls-7" points="275.25 376.32 275.27 376.32 275.25 353.46"/>
 <polygon class="cls-7" points="137.93 376.33 275.25 376.32 252.37 353.46 137.86 353.46"/>
 <polygon class="cls-6" points="137.86 355.72 254.19 355.27 229.49 330.59 137.86 330.59"/>
 <polygon class="cls-5" points="137.86 334.24 233.13 334.24 206.56 307.67 137.86 307.67"/>
 <polygon class="cls-4" points="137.86 311.52 210.41 311.52 183.72 284.85 137.86 284.85"/>
 <rect class="cls-2" x="69.87" y="307.67" width="67.99" height="68.66"/>
 <polygon class="cls-4" points="0 376.33 69.87 376.33 69.87 307.67"/>
 <polygon class="cls-7" points="137.86 239.02 69.87 307.67 137.86 307.67"/>
 <g class="cls-14" clip-path="url(#clip-path)">
  <path class="cls-11" transform="translate(-89.24,-46.09)" d="m475 237.57h12.69v-18.52a42.91 42.91 0 0 1 0.35-5.67 10.81 10.81 0 0 1 1.5-4.42 7.73 7.73 0 0 1 3.31-2.88 13.62 13.62 0 0 1 5.84-1 16.78 16.78 0 0 1 2.79 0.22 18.6 18.6 0 0 1 2.71 0.64v-11.8a10.78 10.78 0 0 0-2.07-0.34c-0.74-0.06-1.48-0.09-2.23-0.09a12.37 12.37 0 0 0-7.13 1.93 15.89 15.89 0 0 0-4.9 5.8h-0.17v-7.73h-12.69zm-38.76-26.68a8.21 8.21 0 0 1 0.73-3 7.64 7.64 0 0 1 1.8-2.49 9.56 9.56 0 0 1 2.8-1.77 9.77 9.77 0 0 1 3.78-0.68 7.63 7.63 0 0 1 5.75 2.32 7.48 7.48 0 0 1 2.15 5.58zm18.9 11.77a14.52 14.52 0 0 1-3.82 3.65 9.74 9.74 0 0 1-5.37 1.42 9.49 9.49 0 0 1-6.36-2.19 10.27 10.27 0 0 1-3.35-5.89h29.89v-4a28.09 28.09 0 0 0-1.37-9 20.21 20.21 0 0 0-3.91-6.91 16.88 16.88 0 0 0-6.18-4.42 20.66 20.66 0 0 0-8.12-1.55 26.29 26.29 0 0 0-9.06 1.55 21.72 21.72 0 0 0-7.39 4.42 20.74 20.74 0 0 0-4.94 6.91 23.5 23.5 0 0 0 0 18 20.68 20.68 0 0 0 4.94 6.92 21.72 21.72 0 0 0 7.39 4.42 26.29 26.29 0 0 0 9.06 1.55 23.43 23.43 0 0 0 9.79-2.15 20.49 20.49 0 0 0 7.82-6.1zm-69.06-11.77a8.21 8.21 0 0 1 0.73-3 7.64 7.64 0 0 1 1.8-2.49 9.5 9.5 0 0 1 2.79-1.77 9.84 9.84 0 0 1 3.78-0.68 7.63 7.63 0 0 1 5.76 2.32 7.43 7.43 0 0 1 2.14 5.58zm18.92 11.77a14.56 14.56 0 0 1-3.83 3.65 9.71 9.71 0 0 1-5.36 1.42 9.47 9.47 0 0 1-6.36-2.19 10.21 10.21 0 0 1-3.35-5.89h29.9v-4a27.81 27.81 0 0 0-1.38-9 20 20 0 0 0-3.9-6.91 16.84 16.84 0 0 0-6.19-4.42 20.62 20.62 0 0 0-8.12-1.55 26.37 26.37 0 0 0-9.06 1.55 21.78 21.78 0 0 0-7.38 4.42 20.74 20.74 0 0 0-4.94 6.91 23.38 23.38 0 0 0 0 18 20.68 20.68 0 0 0 4.94 6.92 21.78 21.78 0 0 0 7.33 4.43 26.37 26.37 0 0 0 9.06 1.55 23.47 23.47 0 0 0 9.8-2.15 20.56 20.56 0 0 0 7.82-6.1zm-40.65-28.95h-12.7v21.82a29.59 29.59 0 0 1-0.25 3.95 9.85 9.85 0 0 1-1.08 3.39 6.07 6.07 0 0 1-2.36 2.41 8 8 0 0 1-4 0.9 5.53 5.53 0 0 1-5.79-3.69 11.94 11.94 0 0 1-0.78-3.57c-0.08-1.29-0.13-2.53-0.13-3.73v-21.48h-12.96v24a50.28 50.28 0 0 0 0.56 7.82 16.23 16.23 0 0 0 2.23 6.27 11.43 11.43 0 0 0 4.72 4.17 18.12 18.12 0 0 0 7.95 1.5 14.75 14.75 0 0 0 4.3-0.6 15.3 15.3 0 0 0 3.52-1.55 11.46 11.46 0 0 0 2.62-2.15 14.66 14.66 0 0 0 1.76-2.4h0.17v6.75h12.18zm-65.74 29.55q-2.7 2.93-7.6 2.92c-3.26 0-5.8-1-7.6-2.92a12.14 12.14 0 0 1 0-15.29c1.8-1.95 4.34-2.92 7.6-2.92s5.8 1 7.6 2.92a12.14 12.14 0 0 1 0 15.29m14.56-29.55h-11.89v6.53h-0.17a14.57 14.57 0 0 0-2-2.28 15.6 15.6 0 0 0-2.92-2.1 18 18 0 0 0-3.69-1.55 14.6 14.6 0 0 0-4.17-0.6 21.53 21.53 0 0 0-8.42 1.59 18.84 18.84 0 0 0-6.49 4.47 19.92 19.92 0 0 0-4.16 6.82 24.75 24.75 0 0 0-1.46 8.68 26.31 26.31 0 0 0 1.33 8.38 23.12 23.12 0 0 0 3.78 7.08 18.3 18.3 0 0 0 6 4.94 17 17 0 0 0 8 1.85 22.12 22.12 0 0 0 7.51-1.25 11.94 11.94 0 0 0 5.72-4.25h0.17v24h12.88z"/>
 </g>
 <polygon class="cls-11" points="385.74 239.02 385.74 263.63 499.1 263.8 524.06 239.02"/>
 <polygon class="cls-13" points="408.77 353.46 385.73 353.46 385.73 376.33 385.74 376.32 385.73 376.32"/>
 <polygon class="cls-13" points="385.74 353.46 406.6 355.61 431.81 330.59 385.74 330.59"/>
 <polygon class="cls-15" points="385.73 330.59 430.16 332.23 454.9 307.67 385.73 307.71"/>
 <polygon class="cls-9" points="385.73 307.71 453.33 309.23 477.98 284.76 385.73 284.85"/>
 <polygon class="cls-16" points="385.74 287.14 476.77 285.96 500.93 261.98 385.74 261.98"/>
 <g class="cls-14" clip-path="url(#clip-path)">
  <path class="cls-11" transform="translate(-89.24,-46.09)" d="m536.66 394.35a8.73 8.73 0 0 1 0.77-3.13 8.23 8.23 0 0 1 1.91-2.63 10 10 0 0 1 2.94-1.86 10.31 10.31 0 0 1 4-0.73 8.07 8.07 0 0 1 6.07 2.45 7.9 7.9 0 0 1 2.26 5.9zm20 12.42a15.2 15.2 0 0 1-4 3.85 10.16 10.16 0 0 1-5.66 1.5 10 10 0 0 1-6.71-2.31 10.84 10.84 0 0 1-3.54-6.21h31.56v-4.27a29.57 29.57 0 0 0-1.45-9.51 21.49 21.49 0 0 0-4.48-7.18 16.1 16.1 0 0 0-6.23-4.33 21.5 21.5 0 0 0-8.52-1.62 30.23 30.23 0 0 0-10 1.49 20.22 20.22 0 0 0-7.35 4.34 21.73 21.73 0 0 0-5.21 7.3 24.66 24.66 0 0 0 0 19 21.73 21.73 0 0 0 5.21 7.3 23 23 0 0 0 7.8 4.67 27.71 27.71 0 0 0 9.56 1.64 24.73 24.73 0 0 0 10.34-2.27 21.76 21.76 0 0 0 8.25-6.44zm-57.39 15.69h13.6v-68.7h-13.6zm-8.89-45.77h-12v-12.45h-13.6v12.45h-8.7v11.49h8.7v20.95a14 14 0 0 0 1.23 6.16 10.67 10.67 0 0 0 3.4 4.13 14.36 14.36 0 0 0 5.07 2.31 26.36 26.36 0 0 0 6.35 0.73 41.59 41.59 0 0 0 4.81-0.28 20.18 20.18 0 0 0 4.71-1.09v-11a6.9 6.9 0 0 1-2.63 0.73 23.86 23.86 0 0 1-2.86 0.23 8.5 8.5 0 0 1-3.49-0.59 4.06 4.06 0 0 1-1.95-1.68 6.82 6.82 0 0 1-0.82-2.58 27.88 27.88 0 0 1-0.18-3.31v-14.71h12zm-40.58 5.31a15.73 15.73 0 0 0-7.5-4.25 31.78 31.78 0 0 0-8.79-1.08 30.88 30.88 0 0 0-7.31 0.61 15.12 15.12 0 0 0-5.46 2.45 14 14 0 0 0-4.17 4.62 13.45 13.45 0 0 0-1.58 6.71 11.75 11.75 0 0 0 1.67 6.67 11.56 11.56 0 0 0 4.26 3.85 22.67 22.67 0 0 0 5.54 2l5.53 1.27a18.49 18.49 0 0 1 4.26 1.45 2.76 2.76 0 0 1 1.68 2.58 2.52 2.52 0 0 1-1.91 2.5 12.69 12.69 0 0 1-4.26 0.68 11.28 11.28 0 0 1-5.39-1.23 19.17 19.17 0 0 1-4.63-3.09l-7.51 8.25a19.42 19.42 0 0 0 7.65 5.09 34.87 34.87 0 0 0 9.34 1.32 38.31 38.31 0 0 0 7.16-0.69 20.38 20.38 0 0 0 6.53-2.35 14.28 14.28 0 0 0 4.76-4.45 12.31 12.31 0 0 0 1.86-7 11.87 11.87 0 0 0-1.68-6.67 12.45 12.45 0 0 0-4.26-3.94 20.72 20.72 0 0 0-5.53-2.13l-5.54-1.27a22.33 22.33 0 0 1-4.26-1.36 2.52 2.52 0 0 1-1.67-2.4 2.9 2.9 0 0 1 1.63-2.82 7.45 7.45 0 0 1 3.35-0.81 9.62 9.62 0 0 1 7.89 3.72z"/>
 </g>
 <path class="cls-11" d="m374.86 267.3h-16.42l8.16-20.89zm-43 26.78h16.33l5.6-14.24h26.12l5.79 14.24h16.71l-29.25-67.23h-12.26zm-71.59 0h15v-32.17l27.67 32.2h20.7l-32.47-36 29.91-31.24h-19.39l-26.44 28.37v-28.39h-15z"/>
</svg>
